<?xml version="1.0" encoding="UTF-8" standalone="no" ?>
<!DOCTYPE svg PUBLIC "-//W3C//DTD SVG 1.1//EN" "http://www.w3.org/Graphics/SVG/1.1/DTD/svg11.dtd">
<svg xmlns="http://www.w3.org/2000/svg" xmlns:xlink="http://www.w3.org/1999/xlink" version="1.1" width="1080" height="1080" viewBox="0 0 1080 1080" xml:space="preserve">
<desc>Created with Fabric.js 5.2.4</desc>
<defs>
</defs>
<g transform="matrix(1 0 0 1 540 540)" id="39eec79e-608c-46cb-9d89-6a97794bf542"  >
<rect style="stroke: none; stroke-width: 1; stroke-dasharray: none; stroke-linecap: butt; stroke-dashoffset: 0; stroke-linejoin: miter; stroke-miterlimit: 4; fill: rgb(255,255,255); fill-rule: nonzero; opacity: 1; visibility: hidden;" vector-effect="non-scaling-stroke"  x="-540" y="-540" rx="0" ry="0" width="1080" height="1080" />
</g>
<g transform="matrix(1 0 0 1 540 540)" id="f70f6799-3197-4f9f-b853-f21a666ce7c9"  >
</g>
<g transform="matrix(9.82 0 0 9.82 540 540)"  >
<g style=""   >
		<g transform="matrix(1 0 0 1 -41.34 -0.12)"  >
<path style="stroke: none; stroke-width: 1; stroke-dasharray: none; stroke-linecap: butt; stroke-dashoffset: 0; stroke-linejoin: miter; stroke-miterlimit: 4; fill: rgb(0,0,0); fill-rule: nonzero; opacity: 1;" vector-effect="non-scaling-stroke"  transform=" translate(-13.66, -9.38)" d="M 8.227 13.638 L 21.667 0.217 C 21.955585572149634 -0.07152824341698408 22.42341442785037 -0.07152824341698408 22.712000000000003 0.21699999999999978 L 27.096000000000004 4.592 C 27.385000000000005 4.882 27.385000000000005 5.351 27.096000000000004 5.637 L 14.18 18.535 C 13.89 18.824 13.42 18.824 13.131 18.535 L 8.225999999999999 13.635 L 8.225999999999999 13.638 Z M 0.217 5.64 C 0.0779503997096932 5.5016764315791855 -0.00022817506140246357 5.313633120409485 -0.00022817506140246357 5.1175 C -0.00022817506140246357 4.921366879590514 0.07795039970969322 4.733323568420814 0.217 4.595 L 4.6 0.217 C 4.89 -0.07299999999999998 5.359999999999999 -0.07299999999999998 5.648999999999999 0.217 L 12.444 7 L 7.014000000000001 12.423 L 0.218 5.64 Z" stroke-linecap="round" />
</g>
		<g transform="matrix(1 0 0 1 18.35 0.28)"  >
<path style="stroke: none; stroke-width: 1; stroke-dasharray: none; stroke-linecap: butt; stroke-dashoffset: 0; stroke-linejoin: miter; stroke-miterlimit: 4; fill: rgb(0,0,0); fill-rule: nonzero; opacity: 1;" vector-effect="non-scaling-stroke"  transform=" translate(-73.35, -9.78)" d="M 36.7 2.467 L 39.382000000000005 2.467 L 43.61200000000001 13.698 L 47.84200000000001 2.468 L 50.52500000000001 2.468 L 45.057000000000016 16.892 L 42.167000000000016 16.892 L 36.7 2.467 Z M 58.96 15.346 C 58.96 15.346 57.62 17.097 54.730000000000004 17.097 C 51.429 17.097 48.883 14.214000000000002 49.443000000000005 10.935000000000002 C 49.877 8.403000000000002 52.169000000000004 6.535000000000002 54.74100000000001 6.589000000000002 C 57.571000000000005 6.647000000000002 59.581 8.892000000000003 59.581 11.636000000000003 C 59.581 12.256000000000002 59.477000000000004 12.771000000000003 59.477000000000004 12.771000000000003 L 51.947 12.771000000000003 C 52.196000000000005 13.905000000000003 53.185 14.934000000000003 54.837 14.934000000000003 C 56.59 14.934000000000003 57.622 13.676000000000002 57.622 13.676000000000002 L 58.963 15.346000000000002 L 58.961 15.346000000000002 Z M 57 10.812 C 56.691 9.677 55.864 8.853 54.523 8.853 C 53.078 8.853 52.253 9.677 51.945 10.812999999999999 L 57 10.812999999999999 Z M 61.5 6.794 L 63.874 6.794 L 63.874 8.237 L 63.977000000000004 8.237 C 63.977000000000004 8.237 65.01 6.589 66.867 6.589 L 67.27900000000001 6.589 L 67.27900000000001 9.164000000000001 C 67.27900000000001 9.164000000000001 66.971 9.061000000000002 66.45400000000001 9.061000000000002 C 65.01 9.061000000000002 63.876000000000005 10.195000000000002 63.876000000000005 11.947000000000003 L 63.876000000000005 16.892000000000003 L 61.50300000000001 16.892000000000003 L 61.50300000000001 6.794 L 61.5 6.794 Z M 68.768 2.467 L 71.141 2.467 L 71.141 11.227 L 75.16300000000001 6.797000000000001 L 78.05300000000001 6.797000000000001 L 74.23500000000001 11.022 L 78.25800000000001 16.895 L 75.57600000000001 16.895 L 72.686 12.67 L 71.138 14.42 L 71.138 16.895 L 68.765 16.895 L 68.765 2.467 L 68.768 2.467 Z M 85.282 15.553 L 85.178 15.553 C 85.178 15.553 84.25 17.1 82.188 17.1 C 80.126 17.1 78.886 15.760000000000002 78.886 14.214000000000002 C 78.886 12.566000000000003 80.12299999999999 11.328000000000003 81.87599999999999 11.019000000000002 L 85.282 10.400000000000002 C 85.282 9.680000000000001 84.457 8.853000000000002 83.321 8.853000000000002 C 81.814 8.853000000000002 80.844 10.089000000000002 80.844 10.089000000000002 L 79.399 8.646000000000003 C 79.399 8.646000000000003 80.844 6.586000000000002 83.422 6.586000000000002 C 86 6.586000000000002 87.652 8.400000000000002 87.652 10.605000000000002 L 87.652 16.89 L 85.28 16.89 L 85.28 15.55 L 85.283 15.553 Z M 85.282 12.255 L 82.90899999999999 12.667000000000002 C 81.67099999999999 12.893000000000002 81.25899999999999 13.287 81.25899999999999 13.903000000000002 C 81.25899999999999 14.519000000000004 81.87899999999999 15.138000000000002 82.80799999999999 15.138000000000002 C 84.148 15.138000000000002 85.285 14.004000000000001 85.285 12.563000000000002 L 85.285 12.255000000000003 L 85.282 12.255000000000003 Z M 97.205 15.45 L 97.102 15.45 C 97.102 15.45 96.172 17.096999999999998 93.8 17.096999999999998 C 91.42699999999999 17.096999999999998 89.25999999999999 14.933999999999997 89.25999999999999 11.842999999999998 C 89.25999999999999 8.752999999999998 91.42599999999999 6.588999999999999 93.8 6.588999999999999 C 96.173 6.588999999999999 97.102 8.236999999999998 97.102 8.236999999999998 L 97.205 8.236999999999998 L 97.205 2.4669999999999987 L 99.579 2.4669999999999987 L 99.579 16.892 L 97.205 16.892 L 97.205 15.45 Z M 97.205 11.843 C 97.205 10.195 95.968 8.957 94.42 8.957 C 92.871 8.957 91.634 10.193000000000001 91.634 11.843 C 91.634 13.493 92.871 14.729 94.42 14.729 C 95.968 14.729 97.205 13.492999999999999 97.205 11.843 Z M 107.629 15.553 L 107.52600000000001 15.553 C 107.52600000000001 15.553 106.59700000000001 17.1 104.53500000000001 17.1 C 102.47300000000001 17.1 101.23400000000001 15.760000000000002 101.23400000000001 14.214000000000002 C 101.23400000000001 12.566000000000003 102.471 11.328000000000003 104.224 11.019000000000002 L 107.629 10.400000000000002 C 107.629 9.680000000000001 106.805 8.853000000000002 105.66900000000001 8.853000000000002 C 104.16400000000002 8.853000000000002 103.19200000000001 10.089000000000002 103.19200000000001 10.089000000000002 L 101.74700000000001 8.646000000000003 C 101.74700000000001 8.646000000000003 103.19200000000001 6.586000000000002 105.77000000000001 6.586000000000002 C 108.34800000000001 6.586000000000002 110.00000000000001 8.400000000000002 110.00000000000001 10.605000000000002 L 110.00000000000001 16.89 L 107.62700000000001 16.89 L 107.62700000000001 15.55 L 107.629 15.553 Z M 107.629 12.255 L 105.256 12.667000000000002 C 104.019 12.893000000000002 103.607 13.287 103.607 13.903000000000002 C 103.607 14.519000000000004 104.227 15.138000000000002 105.155 15.138000000000002 C 106.496 15.138000000000002 107.632 14.004000000000001 107.632 12.563000000000002 L 107.632 12.255000000000003 L 107.629 12.255000000000003 Z" stroke-linecap="round" />
</g>
</g>
</g>
</svg>